<svg width="16" height="15" viewBox="0 0 16 15" fill="none" xmlns="http://www.w3.org/2000/svg" class="css-wj2heb"><path fill-rule="evenodd" clip-rule="evenodd" d="M0.398973 14.8502H0.349161C0.349161 14.8254 0.336728 14.7879 0.336728 14.7754C0.336728 14.763 0.336727 14.7382 0.299269 14.7382H0.224432V14.8502H0.187053V14.5885H0.299269C0.34916 14.5885 0.38654 14.601 0.38654 14.6508C0.38654 14.6881 0.374028 14.7007 0.361674 14.713C0.374107 14.7256 0.38654 14.738 0.38654 14.763V14.8128C0.38654 14.8254 0.38654 14.8254 0.398973 14.8254V14.8502ZM0.349161 14.6634C0.349161 14.6259 0.324215 14.6259 0.311782 14.6259H0.224432V14.7007H0.299269C0.324215 14.7007 0.349161 14.6881 0.349161 14.6634ZM0.56116 14.7131C0.56116 14.5636 0.43651 14.4388 0.274323 14.4388C0.124728 14.4388 0 14.5636 0 14.7131C0 14.8752 0.124728 15 0.274323 15C0.436431 14.9999 0.56116 14.8752 0.56116 14.7131ZM0.523701 14.7131C0.523701 14.8503 0.411564 14.95 0.274323 14.95C0.137161 14.95 0.0374576 14.8502 0.0374576 14.7131C0.0374576 14.5885 0.13724 14.4762 0.274323 14.4762C0.411485 14.4762 0.523701 14.5885 0.523701 14.7131ZM15.8851 9.67579C15.8851 10.0499 15.6483 10.2243 15.2243 10.2243H14.414V9.85017H15.2243C15.2991 9.85017 15.3614 9.83781 15.3865 9.81295C15.4113 9.78792 15.4363 9.75046 15.4363 9.70065C15.4363 9.65068 15.4115 9.60087 15.3865 9.576C15.3614 9.55098 15.3117 9.53862 15.2369 9.53862C14.8504 9.52603 14.3641 9.55098 14.3641 9.00241C14.3641 8.75295 14.5261 8.47863 14.9625 8.47863H15.7979V8.85273H15.0248C14.9501 8.85273 14.9001 8.85273 14.8627 8.8776C14.8253 8.91506 14.8004 8.95244 14.8004 9.01484C14.8004 9.07717 14.8379 9.11462 14.8877 9.13965C14.9377 9.152 14.9876 9.16452 15.0499 9.16452H15.2742C15.5111 9.16452 15.6609 9.21433 15.7606 9.30168C15.8352 9.38895 15.8851 9.50132 15.8851 9.67579ZM14.127 9.30168C14.0273 9.21433 13.8776 9.16452 13.6407 9.16452H13.4164C13.354 9.16452 13.3041 9.15192 13.2543 9.13965C13.2043 9.11462 13.1671 9.07717 13.1671 9.01484C13.1671 8.95244 13.1794 8.91506 13.2293 8.8776C13.2668 8.85273 13.3166 8.85273 13.3914 8.85273H14.1645V8.47863H13.3291C12.8802 8.47863 12.7305 8.75295 12.7305 9.00241C12.7305 9.5509 13.2169 9.52603 13.6034 9.53862C13.6781 9.53862 13.7281 9.55098 13.7529 9.576C13.7778 9.60087 13.8029 9.65068 13.8029 9.70065C13.8029 9.75046 13.7779 9.78792 13.7529 9.81295C13.7156 9.83781 13.6657 9.85017 13.5909 9.85017H12.7804V10.2243H13.5909C14.0147 10.2243 14.2517 10.0498 14.2517 9.67579C14.2517 9.50132 14.2019 9.38895 14.127 9.30168ZM12.531 9.86284H11.5462V9.51368H12.5062V9.16467H11.5462V8.84038H12.531V8.47886H11.1347V10.2244H12.531V9.86284ZM10.6857 8.56613C10.5485 8.4913 10.3865 8.47878 10.1745 8.47878H9.21448V10.2243H9.63832V9.58844H10.0873C10.2368 9.58844 10.3241 9.60095 10.3865 9.66327C10.4614 9.75046 10.4614 9.90014 10.4614 10.0124V10.2243H10.8727V9.88763C10.8727 9.72552 10.8603 9.65068 10.8105 9.56349C10.773 9.51352 10.6984 9.45119 10.5986 9.41382C10.7107 9.37652 10.8979 9.22684 10.8979 8.95244C10.8977 8.75311 10.8229 8.64081 10.6857 8.56613ZM8.31667 8.47878H6.98251L6.44637 9.05238L5.9351 8.47878H4.25186V10.2243H5.91024L6.44645 9.65068L6.95764 10.2243H7.76818V9.63841H8.2918C8.6534 9.63841 9.01507 9.53862 9.01507 9.05238C9.01499 8.57857 8.64089 8.47878 8.31667 8.47878ZM10.349 9.20205C10.2867 9.22684 10.2243 9.22684 10.1495 9.22684L9.63832 9.23943V8.8403H10.1495C10.2243 8.8403 10.2992 8.8403 10.349 8.87768C10.399 8.90278 10.4363 8.95252 10.4363 9.02735C10.4363 9.10227 10.399 9.16459 10.349 9.20205ZM8.31667 9.28924H7.76802V8.8403H8.31667C8.46634 8.8403 8.56605 8.90278 8.56605 9.05238C8.56605 9.20205 8.46627 9.28924 8.31667 9.28924ZM6.70818 9.35149L7.35654 8.66584V10.0748L6.70818 9.35149ZM5.69824 9.86284H4.66327V9.51368H5.58594V9.16467H4.66327V8.84038H5.71067L6.17205 9.35157L5.69824 9.86284ZM14.7255 7.21938H14.127L13.3415 5.91016V7.21938H12.4938L12.3315 6.83284H11.4588L11.2967 7.21938H10.8104C10.6109 7.21938 10.349 7.16949 10.1996 7.01981C10.0623 6.87022 9.98748 6.67073 9.98748 6.35903C9.98748 6.09714 10.0249 5.86027 10.2118 5.6733C10.3365 5.53606 10.561 5.47381 10.8477 5.47381H11.2466V5.84792H10.8477C10.6982 5.84792 10.6108 5.87286 10.5235 5.9477C10.4487 6.02254 10.4113 6.15962 10.4113 6.34667C10.4113 6.53365 10.4487 6.67081 10.5235 6.75816C10.5859 6.82041 10.6982 6.84535 10.8103 6.84535H10.9973L11.5958 5.47389H12.2193L12.9175 7.11968V5.47381H13.566L14.3016 6.68324V5.47381H14.7254V7.21938H14.7255ZM9.77556 5.47381H9.35172V7.21938H9.77556V5.47381ZM8.89019 5.54865C8.75302 5.47381 8.60351 5.47381 8.39151 5.47381H7.43138V7.21938H7.84278V6.58346H8.29165C8.44132 6.58346 8.5411 6.59589 8.60343 6.6583C8.67826 6.74557 8.66567 6.89524 8.66567 6.99495V7.21938H9.08951V6.87022C9.08951 6.72062 9.07708 6.64579 9.01484 6.55852C8.97738 6.50862 8.90254 6.44622 8.81535 6.40892C8.92741 6.35903 9.11462 6.22187 9.11462 5.94754C9.1147 5.74814 9.02735 5.63584 8.89019 5.54865ZM7.1321 6.85786H6.15954V6.5087H7.11959V6.14719H6.15954V5.83541H7.1321V5.47389H5.73562V7.21946H7.1321V6.85786ZM5.42392 5.47381H4.73811L4.22692 6.6583L3.67827 5.47381H3.00497V7.1196L2.29429 5.47381H1.67089L0.922754 7.21938H1.37162L1.53365 6.83284H2.40643L2.56854 7.21938H3.41646V5.84792L4.02735 7.21938H4.38887L4.99992 5.84792V7.21938H5.42384V5.47381H5.42392ZM12.1821 6.45881L11.8952 5.77308L11.6085 6.45881H12.1821ZM8.56605 6.18457C8.5038 6.22203 8.4414 6.22203 8.35413 6.22203H7.84278V5.83548H8.35405C8.42889 5.83548 8.516 5.83548 8.56597 5.86043C8.61578 5.89789 8.64081 5.94778 8.64081 6.02254C8.64081 6.0973 8.61586 6.15954 8.56605 6.18457ZM1.68324 6.45881L1.97008 5.77308L2.25684 6.45881H1.68324ZM15.7854 0H0.910242V6.28427L1.42143 5.12473H2.50614L2.65581 5.41149V5.12473H3.92765L4.2144 5.74814L4.48873 5.12473H8.5411C8.72808 5.12473 8.89011 5.16211 9.01491 5.26181V5.12473H10.1246V5.26181C10.3115 5.16203 10.5484 5.12473 10.8228 5.12473H12.4312L12.5809 5.41149V5.12473H13.7655L13.9401 5.41149V5.12473H15.0995V7.56854H13.9276L13.7032 7.19451V7.56854H12.2443L12.0823 7.16957H11.7205L11.5585 7.56854H10.7979C10.4987 7.56854 10.2742 7.4937 10.1247 7.41895V7.56854H8.31667V7.00746C8.31667 6.93262 8.30424 6.92011 8.25435 6.92011H8.19202V7.56846H4.70073V7.25676L4.57608 7.56846H3.84046L3.71581 7.26919V7.56846H2.30673L2.15713 7.16949H1.79554L1.63351 7.56846H0.910242V14.9375H15.7854V10.4612C15.6234 10.5361 15.3989 10.5734 15.1745 10.5734H14.0897V10.4238C13.965 10.5236 13.7405 10.5734 13.5286 10.5734H10.1121V10.0124C10.1121 9.9376 10.0998 9.9376 10.0373 9.9376H9.97497V10.5734H8.85281V9.91265C8.66583 9.99984 8.45383 9.99984 8.26678 9.99984H8.14205V10.5734H6.77059L6.44645 10.1993L6.08486 10.5734H3.87775V8.1297H6.12216L6.44637 8.50357L6.79553 8.1297H8.30424C8.4787 8.1297 8.76554 8.15457 8.89019 8.27914V8.1297H10.2368C10.3739 8.1297 10.6359 8.15457 10.8104 8.27914V8.1297H12.8428V8.2793C12.955 8.17951 13.1671 8.12978 13.354 8.12978H14.4886V8.2793C14.6135 8.19203 14.7878 8.12978 15.0124 8.12978H15.7854V0Z" fill="#006FCF"/></svg>