<svg width="10" height="10" viewBox="0 0 10 10" fill="none" xmlns="http://www.w3.org/2000/svg" class="css-zb1igp eakqeop6"><path d="M6.26626 1.57521L6.26606 1.57542L1.57541 6.26573C1.51542 6.32572 1.4827 6.4046 1.4827 6.48895C1.4827 6.57346 1.51553 6.65251 1.57521 6.71197L1.57541 6.71217L3.2875 8.42425C3.41061 8.54737 3.61119 8.54723 3.73384 8.42435L3.73394 8.42425L8.42449 3.73403L6.26626 1.57521ZM6.26626 1.57521C6.32572 1.51553 6.40477 1.4827 6.48928 1.4827M6.26626 1.57521L6.48928 1.4827M6.48928 1.4827C6.57363 1.4827 6.65251 1.51542 6.7125 1.57541L8.42449 3.2874M6.48928 1.4827L8.42449 3.2874M8.42449 3.2874L8.42459 3.2875C8.54731 3.41056 8.54731 3.61087 8.42459 3.73393L8.42449 3.2874ZM2.83939 8.87234L2.8394 8.87235C3.02449 9.05744 3.26787 9.14958 3.51038 9.14958C3.7533 9.14958 3.99625 9.0574 4.18159 8.87246L4.1817 8.87235L8.87229 4.18176C8.87231 4.18174 8.87233 4.18172 8.87235 4.1817C9.2426 3.81179 9.2425 3.20988 8.87235 2.83973L7.16027 1.12765L7.16021 1.12759C6.78969 0.757469 6.18854 0.757469 5.81802 1.12759L5.81797 1.12765L1.12765 5.81797C0.75745 6.18817 0.75745 6.79007 1.12765 7.16027L2.83939 8.87234Z" fill="#fff" stroke="#656565" stroke-width="0.5"/></svg>