<svg xmlns="http://www.w3.org/2000/svg" width="1.44em" height="1.25em" viewBox="0 0 14 13" data-test="desktopHeader-wishlist-icon"><g stroke="none" stroke-width="1" fill="none" fill-rule="evenodd" stroke-linecap="round" stroke-linejoin="round" opacity="0.8"><g transform="translate(-79.000000, -637.000000)" stroke-width="1" stroke="#656565"><g transform="translate(80.000000, 580.000000)"><g transform="translate(0.000000, 58.000000)"><g><g><path d="M0.904945055,5.35233449 C0.7875,5.19554007 0.671291209,5.03247387 0.564972527,4.86188153 C0.457417582,4.69254355 0.359752747,4.51567944 0.275686813,4.33254355 C0.191620879,4.14815331 0.12239011,3.95749129 0.0754120879,3.75804878 C0.0271978022,3.55986063 0,3.35163763 0,3.1358885 C0,2.91888502 0.0210164835,2.70815331 0.0618131868,2.50369338 C0.103846154,2.29923345 0.164423077,2.10229965 0.242307692,1.9154007 C0.320192308,1.72724739 0.416620879,1.54912892 0.527884615,1.38229965 C0.639148352,1.21547038 0.765247253,1.05993031 0.904945055,0.918188153 C1.04464286,0.776445993 1.19793956,0.647247387 1.36236264,0.535609756 C1.52678571,0.42271777 1.70233516,0.324878049 1.88777473,0.245853659 C2.07197802,0.166829268 2.26607143,0.105365854 2.46758242,0.06271777 C2.66909341,0.0213240418 2.87678571,0 3.09065934,0 C3.3032967,0 3.51222527,0.0213240418 3.71373626,0.06271777 C3.91401099,0.105365854 4.1081044,0.166829268 4.29354396,0.245853659 C4.47774725,0.324878049 4.6532967,0.42271777 4.81771978,0.535609756 C4.98214286,0.647247387 5.13543956,0.776445993 5.27513736,0.918188153 C5.41607143,1.05993031 5.54217033,1.21547038 5.65343407,1.38229965 C5.7646978,1.54912892 5.93777473,1.9154007 5.93777473,1.9154007"/><path d="M5.93406593,10.704669 L0.904945055,5.35233449"/></g><g transform="translate(5.686813, 0.000000)"><path d="M5.27513736,5.35233449 C5.39381868,5.19554007 5.50879121,5.03247387 5.61634615,4.86188153 C5.72266484,4.69254355 5.82156593,4.51567944 5.9043956,4.33254355 C5.98846154,4.14815331 6.05769231,3.95749129 6.10590659,3.75804878 C6.15412088,3.55986063 6.18131868,3.35163763 6.18131868,3.1358885 C6.18131868,2.91888502 6.15906593,2.70815331 6.11826923,2.50369338 C6.07747253,2.29923345 6.01565934,2.10229965 5.93777473,1.9154007 C5.85989011,1.72724739 5.7646978,1.54912892 5.65343407,1.38229965 C5.54217033,1.21547038 5.41607143,1.05993031 5.27513736,0.918188153 C5.13543956,0.776445993 4.98214286,0.647247387 4.81771978,0.535609756 C4.6532967,0.42271777 4.47774725,0.324878049 4.29354396,0.245853659 C4.1081044,0.166829268 3.91401099,0.105365854 3.71373626,0.06271777 C3.51222527,0.0213240418 3.3032967,0 3.09065934,0 C2.87678571,0 2.66909341,0.0213240418 2.46758242,0.06271777 C2.26607143,0.105365854 2.07197802,0.166829268 1.88777473,0.245853659 C1.70233516,0.324878049 1.52678571,0.42271777 1.36236264,0.535609756 C1.19793956,0.647247387 1.04464286,0.776445993 0.904945055,0.918188153 C0.765247253,1.05993031 0.639148352,1.21547038 0.527884615,1.38229965 C0.416620879,1.54912892 0.320192308,1.72724739 0.242307692,1.9154007"/><path d="M0.247252747,10.704669 L5.27513736,5.35233449"/></g></g></g></g></g></g></svg>