<svg xmlns="http://www.w3.org/2000/svg" width="1em" height="1em" viewBox="0 0 20 20" color="#656565" class="css-ipyg0j e8y1k2l8"><g fill-rule="evenodd" clip-rule="evenodd" fill="currentColor"><path d="M3.5 0H2V11.1035C0.845748 11.43 0 12.4912 0 13.75C0 15.0088 0.845748 16.07 2 16.3965V20H3.5V16.3965C4.65425 16.07 5.5 15.0088 5.5 13.75C5.5 12.4912 4.65425 11.43 3.5 11.1035V0ZM10.75 0H9.25V3.60352C8.09575 3.92998 7.25 4.99122 7.25 6.25C7.25 7.50878 8.09575 8.57002 9.25 8.89648V20H10.75V8.89648C11.9043 8.57002 12.75 7.50878 12.75 6.25C12.75 4.99122 11.9043 3.92998 10.75 3.60352V0ZM16.5 0H18V8.60352C19.1543 8.92998 20 9.99122 20 11.25C20 12.5088 19.1543 13.57 18 13.8965V20H16.5V13.8965C15.3457 13.57 14.5 12.5088 14.5 11.25C14.5 9.99122 15.3457 8.92998 16.5 8.60352V0Z"/></g></svg>