<svg width="20" height="15" viewBox="0 0 20 15" fill="none" xmlns="http://www.w3.org/2000/svg" class="css-wj2heb"><path fill-rule="evenodd" clip-rule="evenodd" d="M18.8983 14.7951V14.8336H18.9342C18.941 14.8337 18.9477 14.832 18.9536 14.8287C18.9583 14.8253 18.9611 14.8198 18.9607 14.814C18.961 14.8082 18.9583 14.8028 18.9536 14.7996C18.9477 14.7961 18.9411 14.7944 18.9342 14.7947H18.8983V14.7951ZM18.9346 14.7678C18.9501 14.7668 18.9653 14.7713 18.9778 14.7803C18.988 14.7887 18.9936 14.8013 18.993 14.8145C18.9934 14.8257 18.989 14.8366 18.9808 14.8444C18.9712 14.8528 18.9591 14.8578 18.9463 14.8588L18.9945 14.9137H18.9574L18.9131 14.8591H18.8987V14.9137H18.8676V14.7679H18.9351L18.9346 14.7678ZM18.925 14.964C18.9413 14.9642 18.9574 14.9609 18.9724 14.9544C18.9867 14.9482 18.9998 14.9393 19.0109 14.9283C19.022 14.9172 19.0309 14.9041 19.037 14.8897C19.0497 14.8591 19.0497 14.8248 19.037 14.7943C19.0308 14.7799 19.0219 14.7668 19.0109 14.7557C18.9998 14.7447 18.9867 14.7358 18.9724 14.7296C18.9573 14.7235 18.9412 14.7203 18.925 14.7205C18.9085 14.7204 18.8921 14.7235 18.8768 14.7296C18.8621 14.7357 18.8487 14.7445 18.8374 14.7557C18.8026 14.7914 18.7924 14.8447 18.8116 14.8907C18.8175 14.9051 18.8263 14.9183 18.8374 14.9293C18.8488 14.9404 18.8621 14.9493 18.8768 14.9554C18.8921 14.9619 18.9084 14.9651 18.925 14.965V14.964ZM18.925 14.6855C18.9674 14.6854 19.0081 14.702 19.0383 14.7317C19.0529 14.746 19.0644 14.763 19.0724 14.7818C19.089 14.8207 19.089 14.8648 19.0724 14.9037C19.0642 14.9223 19.0527 14.9393 19.0383 14.9537C19.0235 14.9679 19.0063 14.9793 18.9875 14.9874C18.9677 14.9958 18.9465 15.0001 18.925 15C18.9033 15.0001 18.8818 14.9959 18.8618 14.9874C18.8428 14.9795 18.8254 14.9681 18.8106 14.9537C18.7962 14.9388 18.7848 14.9213 18.777 14.9021C18.7603 14.8631 18.7603 14.819 18.777 14.7801C18.7849 14.7613 18.7965 14.7443 18.8111 14.7301C18.8257 14.7155 18.8431 14.704 18.8623 14.6964C18.8823 14.6879 18.9038 14.6837 18.9255 14.6839L18.925 14.6855ZM4.16562 14.1222C4.16562 13.8442 4.34785 13.6157 4.64557 13.6157C4.9301 13.6157 5.12214 13.8343 5.12214 14.1222C5.12214 14.4102 4.9301 14.6288 4.64557 14.6288C4.34785 14.6288 4.16562 14.4003 4.16562 14.1222ZM5.44649 14.1222V13.3309H5.10246V13.5237C4.99335 13.3812 4.82786 13.2919 4.60276 13.2919C4.15937 13.2919 3.81141 13.6396 3.81141 14.1227C3.81141 14.6057 4.15918 14.9534 4.60276 14.9534C4.82774 14.9534 4.99335 14.864 5.10246 14.7216V14.9137H5.44611V14.1222H5.44649ZM17.0704 14.1222C17.0704 13.8442 17.2526 13.6157 17.5505 13.6157C17.8353 13.6157 18.027 13.8343 18.027 14.1222C18.027 14.4102 17.8353 14.6288 17.5505 14.6288C17.2527 14.6288 17.0704 14.4003 17.0704 14.1222ZM18.3517 14.1222V12.6957H18.0073V13.5237C17.8982 13.3812 17.7327 13.2919 17.5077 13.2919C17.0643 13.2919 16.7163 13.6396 16.7163 14.1227C16.7163 14.6057 17.0641 14.9534 17.5077 14.9534C17.7327 14.9534 17.8982 14.864 18.0073 14.7216V14.9137H18.3517V14.1222ZM9.71622 13.5994C9.93789 13.5994 10.0803 13.7384 10.1166 13.9832H9.29577C9.33251 13.7547 9.47118 13.5994 9.71628 13.5994H9.71622ZM9.72316 13.291C9.25952 13.291 8.93518 13.6283 8.93518 14.1218C8.93518 14.6249 9.27252 14.9526 9.74622 14.9526C9.98444 14.9526 10.2027 14.8931 10.3947 14.7308L10.2261 14.4759C10.0935 14.5819 9.92464 14.6414 9.76584 14.6414C9.54418 14.6414 9.34232 14.5387 9.2927 14.2539H10.4674C10.4708 14.2111 10.4742 14.168 10.4742 14.1217C10.4708 13.6285 10.1658 13.2909 9.72297 13.2909L9.72316 13.291ZM13.8765 14.1217C13.8765 13.8436 14.0586 13.6151 14.3564 13.6151C14.641 13.6151 14.8329 13.8338 14.8329 14.1217C14.8329 14.4096 14.641 14.6282 14.3564 14.6282C14.0586 14.6282 13.8763 14.3998 13.8763 14.1217H13.8765ZM15.1572 14.1217V13.3309H14.8134V13.5237C14.7039 13.3812 14.5388 13.2919 14.3137 13.2919C13.8703 13.2919 13.5223 13.6396 13.5223 14.1227C13.5223 14.6057 13.8701 14.9534 14.3137 14.9534C14.5388 14.9534 14.7039 14.864 14.8134 14.7216V14.9137H15.1573V14.1222L15.1572 14.1217ZM11.9337 14.1217C11.9337 14.6016 12.2678 14.9525 12.7777 14.9525C13.0159 14.9525 13.1747 14.8995 13.3464 14.7638L13.1812 14.4857C13.052 14.5785 12.9164 14.6282 12.7667 14.6282C12.4921 14.6249 12.2901 14.4263 12.2901 14.1217C12.2901 13.8171 12.4921 13.6186 12.7667 13.6151C12.916 13.6151 13.0516 13.6648 13.1812 13.7576L13.3464 13.4795C13.1744 13.3439 13.0157 13.2909 12.7777 13.2909C12.2678 13.2909 11.9337 13.6416 11.9337 14.1217ZM16.3686 13.2909C16.1702 13.2909 16.0409 13.3837 15.9516 13.5227V13.3309H15.6106V14.9128H15.955V14.026C15.955 13.7643 16.0675 13.6188 16.2924 13.6188C16.366 13.6177 16.4391 13.6313 16.5075 13.6586L16.6136 13.3344C16.5374 13.3044 16.4381 13.2912 16.3685 13.2912L16.3686 13.2909ZM7.14731 13.4567C6.98182 13.3476 6.75372 13.2912 6.50219 13.2912C6.10135 13.2912 5.84332 13.4833 5.84332 13.7976C5.84332 14.0555 6.03542 14.2147 6.3892 14.2643L6.55168 14.2875C6.74035 14.314 6.8294 14.3636 6.8294 14.4529C6.8294 14.5753 6.7041 14.6451 6.46882 14.6451C6.23053 14.6451 6.05855 14.5689 5.94262 14.4796L5.78095 14.7478C5.96962 14.8868 6.2079 14.9531 6.46594 14.9531C6.92283 14.9531 7.18761 14.738 7.18761 14.4368C7.18761 14.1587 6.9792 14.0132 6.63492 13.9636L6.47275 13.9401C6.32383 13.9208 6.20453 13.8908 6.20453 13.7848C6.20453 13.6691 6.31702 13.5995 6.50575 13.5995C6.70766 13.5995 6.90314 13.6756 6.99895 13.7351L7.14787 13.457L7.14731 13.4567ZM11.5862 13.2914C11.3877 13.2914 11.2585 13.3843 11.1695 13.5233V13.3309H10.8285V14.9128H11.1726V14.026C11.1726 13.7643 11.2851 13.6188 11.51 13.6188C11.5836 13.6177 11.6567 13.6313 11.7251 13.6586L11.8311 13.3344C11.755 13.3044 11.6557 13.2912 11.586 13.2912L11.5862 13.2914ZM8.65052 13.3309H8.08796V12.851H7.74018V13.3309H7.41934V13.6453H7.74018V14.367C7.74018 14.734 7.88267 14.9526 8.28962 14.9526C8.43892 14.9526 8.6109 14.9064 8.72001 14.8303L8.62065 14.5357C8.51797 14.5952 8.40549 14.6252 8.31606 14.6252C8.14408 14.6252 8.08796 14.5192 8.08796 14.3604V13.6456H8.65052V13.3309ZM3.50719 14.9133V13.9204C3.50719 13.5465 3.2689 13.2949 2.88482 13.2916C2.68284 13.2882 2.47455 13.3511 2.32875 13.573C2.21964 13.3976 2.04766 13.2916 1.80593 13.2916C1.63695 13.2916 1.47184 13.3412 1.34254 13.5265V13.3309H0.998268V14.9128H1.34523V14.0357C1.34523 13.7611 1.49753 13.6151 1.73275 13.6151C1.96117 13.6151 2.07678 13.7641 2.07678 14.0322V14.9126H2.42455V14.0355C2.42455 13.7609 2.58329 13.615 2.81164 13.615C3.04655 13.615 3.15867 13.7639 3.15867 14.032V14.9125L3.50719 14.9133Z" fill="#231F20"/><path fill-rule="evenodd" clip-rule="evenodd" d="M19.0945 9.65085V9.41949H19.0343L18.9646 9.57823L18.8953 9.41949H18.8348V9.65085H18.8776V9.47655L18.9428 9.62691H18.9871L19.0522 9.47618V9.65085H19.0947H19.0945ZM18.7123 9.65085V9.45912H18.7894V9.42006H18.5924V9.45912H18.6695V9.65085H18.7123Z" fill="#F79410"/><path fill-rule="evenodd" clip-rule="evenodd" d="M12.2471 10.643H7.03375V1.2738H12.2473L12.2471 10.643Z" fill="#FF5F00"/><path fill-rule="evenodd" clip-rule="evenodd" d="M7.36429 5.95862C7.36429 4.05807 8.2542 2.36507 9.63986 1.274C8.59116 0.447084 7.29336 -0.00199314 5.95787 6.65013e-06C2.66734 6.65013e-06 0 2.66772 0 5.95862C0 9.24946 2.66734 11.9172 5.95787 11.9172C7.29336 11.9192 8.59122 11.4701 9.63999 10.6432C8.25438 9.5523 7.36429 7.85923 7.36429 5.95862Z" fill="#EB001B"/><path fill-rule="evenodd" clip-rule="evenodd" d="M19.2806 5.95862C19.2806 9.24945 16.6132 11.9172 13.3228 11.9172C11.9871 11.9191 10.6891 11.4701 9.64017 10.6432C11.0263 9.55211 11.9162 7.85923 11.9162 5.95862C11.9162 4.05795 11.0263 2.36507 9.64017 1.27399C10.6891 0.447083 11.987 -0.00193105 13.3227 6.24269e-06C16.6132 6.24269e-06 19.2805 2.66772 19.2805 5.95862" fill="#F79410"/></svg>