<svg xmlns="http://www.w3.org/2000/svg" width="1em" height="1em" viewBox="0 0 56 16" class="css-wj2heb"><g clip-path="url(#clip0)"><path d="M20.8695 3.59863H17.7809C17.6787 3.59857 17.5798 3.63502 17.502 3.70143C17.4243 3.76784 17.3728 3.85983 17.3569 3.96083L16.1077 11.8808C16.102 11.9175 16.1042 11.9551 16.1144 11.9909C16.1246 12.0266 16.1424 12.0598 16.1666 12.088C16.1908 12.1163 16.2208 12.1389 16.2546 12.1545C16.2884 12.17 16.3252 12.178 16.3624 12.1779H17.8369C17.9392 12.178 18.0382 12.1415 18.116 12.075C18.1937 12.0085 18.2452 11.9164 18.261 11.8153L18.5979 9.67915C18.6137 9.57814 18.6651 9.48611 18.7427 9.41962C18.8204 9.35313 18.9193 9.31656 19.0215 9.3165H19.9992C22.0338 9.3165 23.208 8.33199 23.5146 6.38102C23.6528 5.52747 23.5205 4.85683 23.1208 4.38715C22.6818 3.87141 21.9032 3.59863 20.8695 3.59863ZM21.2258 6.49121C21.0569 7.59947 20.2102 7.59947 19.3914 7.59947H18.9253L19.2523 5.52973C19.2619 5.46918 19.2927 5.41403 19.3393 5.37421C19.3859 5.33438 19.4452 5.3125 19.5065 5.3125H19.7202C20.2779 5.3125 20.804 5.3125 21.0759 5.63044C21.238 5.82012 21.2877 6.10192 21.2258 6.49121ZM30.1018 6.45554H28.6228C28.5615 6.45554 28.5022 6.47742 28.4556 6.51724C28.409 6.55706 28.3781 6.61221 28.3685 6.67276L28.3031 7.08644L28.1996 6.9365C27.8794 6.47179 27.1654 6.31644 26.4528 6.31644C24.8184 6.31644 23.4225 7.55431 23.1506 9.29076C23.0092 10.157 23.2102 10.9852 23.7016 11.5628C24.1523 12.0939 24.7972 12.3152 25.5645 12.3152C26.8814 12.3152 27.6116 11.4684 27.6116 11.4684L27.5457 11.8794C27.5398 11.9162 27.542 11.9537 27.552 11.9896C27.5621 12.0254 27.5798 12.0586 27.6039 12.0869C27.628 12.1153 27.658 12.138 27.6918 12.1537C27.7255 12.1693 27.7623 12.1774 27.7995 12.1775H29.1318C29.2341 12.1775 29.333 12.141 29.4108 12.0745C29.4886 12.008 29.54 11.9159 29.5558 11.8148L30.3552 6.7527C30.3611 6.71604 30.3589 6.67853 30.3489 6.64278C30.3389 6.60703 30.3212 6.57388 30.2971 6.54563C30.273 6.51737 30.2431 6.49468 30.2094 6.47913C30.1757 6.46357 30.139 6.45552 30.1018 6.45554ZM28.0402 9.33412C27.8975 10.1791 27.2269 10.7463 26.3715 10.7463C25.942 10.7463 25.5988 10.6086 25.3784 10.3475C25.1598 10.0883 25.0767 9.71934 25.1463 9.30838C25.2795 8.47063 25.9614 7.88489 26.8037 7.88489C27.2237 7.88489 27.5651 8.02444 27.79 8.28773C28.0154 8.55373 28.1048 8.92496 28.0402 9.33412ZM37.9789 6.45554H36.4926C36.4225 6.45565 36.3535 6.47286 36.2916 6.50568C36.2296 6.53849 36.1766 6.58592 36.1372 6.64386L34.0873 9.66334L33.2184 6.76173C33.1917 6.67323 33.1373 6.59567 33.0631 6.54053C32.9889 6.48538 32.899 6.45558 32.8065 6.45554H31.346C31.305 6.45543 31.2646 6.46511 31.2281 6.48378C31.1916 6.50246 31.1601 6.52958 31.1362 6.56289C31.1123 6.5962 31.0967 6.63473 31.0907 6.67529C31.0847 6.71585 31.0885 6.75725 31.1017 6.79605L32.7388 11.6003L31.1997 13.773C31.1723 13.8115 31.1561 13.8568 31.1528 13.904C31.1495 13.9511 31.1592 13.9982 31.1809 14.0402C31.2026 14.0822 31.2354 14.1174 31.2758 14.1419C31.3161 14.1665 31.3625 14.1795 31.4097 14.1795H32.8941C32.9635 14.1796 33.0318 14.1629 33.0932 14.1308C33.1546 14.0987 33.2073 14.0522 33.2469 13.9952L38.1902 6.85973C38.217 6.82113 38.2327 6.77592 38.2357 6.72902C38.2386 6.68212 38.2286 6.63532 38.2069 6.59367C38.1851 6.55203 38.1523 6.51714 38.1121 6.49279C38.0719 6.46844 38.0259 6.45556 37.9789 6.45554Z" fill="#253B80"/><path d="M42.8997 3.59884H39.8106C39.7085 3.59888 39.6097 3.63539 39.532 3.70178C39.4544 3.76818 39.4029 3.86011 39.387 3.96103L38.1379 11.881C38.1321 11.9177 38.1343 11.9552 38.1444 11.9909C38.1544 12.0267 38.1722 12.0598 38.1963 12.0881C38.2204 12.1163 38.2504 12.139 38.2841 12.1545C38.3178 12.1701 38.3545 12.1781 38.3917 12.1781H39.9768C40.0483 12.178 40.1175 12.1524 40.1718 12.1059C40.2261 12.0594 40.262 11.995 40.2731 11.9243L40.6276 9.67936C40.6434 9.57835 40.6948 9.48631 40.7725 9.41983C40.8501 9.35334 40.949 9.31677 41.0512 9.31671H42.0285C44.0635 9.31671 45.2372 8.3322 45.5443 6.38123C45.683 5.52768 45.5497 4.85703 45.1501 4.38736C44.7115 3.87161 43.9334 3.59884 42.8997 3.59884ZM43.256 6.49142C43.0875 7.59968 42.2408 7.59968 41.4215 7.59968H40.9559L41.2834 5.52994C41.2927 5.46938 41.3235 5.41419 41.37 5.37434C41.4166 5.3345 41.4759 5.31264 41.5372 5.31271H41.7508C42.3081 5.31271 42.8346 5.31271 43.1065 5.63065C43.2686 5.82032 43.3179 6.10213 43.256 6.49142ZM52.1315 6.45574H50.6534C50.5921 6.45557 50.5328 6.47741 50.4862 6.51727C50.4396 6.55713 50.4089 6.61238 50.3996 6.67297L50.3341 7.08665L50.2303 6.93671C49.9101 6.472 49.1965 6.31665 48.4839 6.31665C46.8495 6.31665 45.454 7.55452 45.1821 9.29097C45.0412 10.1572 45.2413 10.9854 45.7326 11.563C46.1843 12.0941 46.8283 12.3154 47.5955 12.3154C48.9124 12.3154 49.6427 11.4686 49.6427 11.4686L49.5768 11.8796C49.5709 11.9164 49.5731 11.9541 49.5832 11.99C49.5933 12.0259 49.611 12.0591 49.6353 12.0875C49.6595 12.1158 49.6896 12.1386 49.7235 12.1542C49.7573 12.1697 49.7942 12.1778 49.8315 12.1777H51.1633C51.2655 12.1776 51.3644 12.1411 51.442 12.0746C51.5197 12.0081 51.5711 11.916 51.5869 11.815L52.3867 6.7529C52.3924 6.71613 52.39 6.67856 52.3798 6.64278C52.3696 6.607 52.3517 6.57385 52.3275 6.54562C52.3032 6.51739 52.2732 6.49474 52.2394 6.47923C52.2055 6.46371 52.1688 6.4557 52.1315 6.45574ZM50.0699 9.33432C49.9281 10.1793 49.2566 10.7465 48.4012 10.7465C47.9726 10.7465 47.6285 10.6088 47.4081 10.3477C47.1895 10.0885 47.1073 9.71955 47.176 9.30858C47.3101 8.47084 47.9912 7.8851 48.8334 7.8851C49.2534 7.8851 49.5948 8.02465 49.8197 8.28794C50.046 8.55394 50.1354 8.92516 50.0699 9.33432ZM53.8752 3.81607L52.6075 11.881C52.6017 11.9177 52.6039 11.9552 52.614 11.9909C52.6241 12.0267 52.6418 12.0598 52.666 12.0881C52.6901 12.1163 52.72 12.139 52.7538 12.1545C52.7875 12.1701 52.8242 12.1781 52.8614 12.1781H54.1358C54.3476 12.1781 54.5273 12.0246 54.5599 11.8155L55.8099 3.896C55.8157 3.85929 55.8135 3.82176 55.8034 3.78599C55.7934 3.75022 55.7757 3.71705 55.7515 3.68877C55.7274 3.66049 55.6975 3.63777 55.6637 3.62217C55.63 3.60657 55.5933 3.59845 55.5561 3.59839H54.129C54.0678 3.59861 54.0086 3.62063 53.9621 3.66052C53.9156 3.7004 53.8848 3.75555 53.8752 3.81607Z" fill="#179BD7"/><path d="M3.28138 13.7171L3.51758 12.2168L2.99145 12.2046H0.479126L2.22506 1.13422C2.23026 1.10039 2.24744 1.06956 2.27347 1.04735C2.2995 1.02513 2.33265 1.01301 2.36687 1.01319H6.603C8.00932 1.01319 8.97984 1.30583 9.48655 1.88344C9.72409 2.15441 9.87538 2.43757 9.94855 2.74919C10.0253 3.07615 10.0267 3.4668 9.95171 3.94325L9.94629 3.97802V4.28331L10.1838 4.41789C10.3652 4.50977 10.5282 4.63405 10.6648 4.78461C10.868 5.01628 10.9994 5.31073 11.055 5.65983C11.1124 6.01886 11.0934 6.44609 10.9994 6.92977C10.8911 7.48615 10.7158 7.97073 10.4792 8.36725C10.2704 8.72246 9.98966 9.03012 9.655 9.27048C9.34067 9.49357 8.96719 9.66293 8.54493 9.77131C8.13577 9.87789 7.66926 9.93164 7.15758 9.93164H6.8279C6.59216 9.93164 6.36319 10.0165 6.18345 10.1687C6.00396 10.3226 5.88489 10.5351 5.84745 10.7685L5.82261 10.9035L5.40532 13.5477L5.38635 13.6448C5.38138 13.6755 5.3728 13.6909 5.36016 13.7012C5.34791 13.7113 5.33263 13.7168 5.3168 13.7171H3.28138Z" fill="#253B80"/><path d="M10.4087 4.01318C10.3961 4.09402 10.3816 4.17667 10.3654 4.26157C9.80671 7.12976 7.89549 8.1206 5.45452 8.1206H4.21168C3.91316 8.1206 3.66162 8.33738 3.6151 8.63183L2.97878 12.6674L2.79858 13.8114C2.7914 13.8568 2.79415 13.9031 2.80662 13.9474C2.81909 13.9916 2.84099 14.0326 2.87082 14.0675C2.90065 14.1024 2.9377 14.1305 2.97941 14.1497C3.02112 14.169 3.06651 14.179 3.11245 14.179H5.31678C5.57781 14.179 5.79955 13.9893 5.84065 13.7319L5.86232 13.6199L6.27736 10.9861L6.304 10.8416C6.34465 10.5832 6.56684 10.3936 6.82787 10.3936H7.15755C9.29323 10.3936 10.9651 9.52647 11.4537 7.01731C11.6579 5.96912 11.5522 5.09389 11.0121 4.47834C10.8409 4.28793 10.6364 4.1303 10.4087 4.01318Z" fill="#179BD7"/><path d="M9.82446 3.78027C9.64609 3.72867 9.46463 3.68839 9.28117 3.65969C8.91867 3.60398 8.55231 3.57725 8.18556 3.57975H4.8653C4.73894 3.57965 4.61672 3.62476 4.52072 3.70693C4.42472 3.78909 4.36129 3.90289 4.34188 4.02775L3.63556 8.50143L3.61523 8.63194C3.63724 8.48953 3.70949 8.35969 3.81891 8.26592C3.92834 8.17215 4.06771 8.12065 4.21182 8.12072H5.45465C7.89562 8.12072 9.80685 7.12943 10.3655 4.26169C10.3822 4.17678 10.3962 4.09414 10.4088 4.0133C10.2614 3.936 10.1078 3.87119 9.94956 3.81956C9.90807 3.80579 9.86637 3.79269 9.82446 3.78027Z" fill="#222D65"/><path d="M4.34183 4.02775C4.36107 3.90285 4.42447 3.789 4.52052 3.70688C4.61656 3.62476 4.73888 3.57981 4.86525 3.5802H8.1855C8.57886 3.5802 8.94602 3.60594 9.28112 3.66014C9.50788 3.69577 9.7315 3.74908 9.94996 3.81956C10.1148 3.8742 10.2679 3.93878 10.4092 4.0133C10.5754 2.95336 10.4079 2.23168 9.83479 1.5782C9.20299 0.858781 8.06266 0.550781 6.6035 0.550781H2.36738C2.06931 0.550781 1.81505 0.767555 1.76899 1.06246L0.00453639 12.2467C-0.00368213 12.2986 -0.000555265 12.3517 0.0137019 12.4023C0.0279591 12.4529 0.0530082 12.4998 0.0871261 12.5398C0.121244 12.5798 0.163621 12.6119 0.211342 12.634C0.259064 12.656 0.310997 12.6675 0.363569 12.6676H2.97886L3.6355 8.50143L4.34183 4.02775Z" fill="#253B80"/></g><defs><clipPath id="clip0"><rect y="0.550781" width="56" height="14.9032" fill="white"/></clipPath></defs></svg>