<svg xmlns="http://www.w3.org/2000/svg" width="1em" height="1em" viewBox="0 0 26 16" class="css-wj2heb"><g fill="none" fill-rule="evenodd" transform="matrix(1 0 0 -1 0 16)"><rect width="26" height="16" fill="#FFF" rx="2"/><path fill="#01798A" d="M21.103 13.472l-4.425.001h-.011c-.608-.018-1.365-.482-1.503-1.054l-2.092-8.816c-.138-.577.237-1.047.84-1.056h4.649c.594.028 1.172.487 1.307 1.053l2.093 8.815c.14.583-.244 1.057-.858 1.057"/><path fill="#024381" d="M13.072 3.603l2.092 8.816c.138.572.895 1.036 1.503 1.054h-1.76l-3.17.002c-.609-.012-1.376-.48-1.513-1.056L8.13 3.603c-.138-.577.238-1.047.84-1.056h4.942c-.603.009-.978.479-.84 1.056"/><path fill="#DD0228" d="M8.13 3.603l2.094 8.816c.137.576.904 1.044 1.514 1.056h-4.06c-.614 0-1.4-.472-1.54-1.056L4.045 3.603a1.055 1.055 0 0 1-.024-.158v-.163c.041-.421.379-.728.864-.735h4.086c-.603.009-.979.479-.84 1.056"/><path fill="#FFF" d="M11.824 7.051h.076c.071 0 .119.023.14.067l.2.285h.535l-.111-.187h.64l-.08-.287h-.763c-.088-.126-.196-.185-.326-.178h-.398l.087.3zm-.088-.41h1.404l-.09-.312h-.564l-.086-.3h.55l-.09-.312h-.55l-.127-.445c-.032-.074.01-.107.124-.1h.448l-.083-.289h-.86c-.164 0-.22.089-.168.267l.163.567h-.352l.09.311h.351l.086.3h-.336l.09.312zm2.242.764l-.022-.182s.265.19.505.19h.89l-.34-1.173c-.029-.134-.15-.2-.363-.2H13.64l-.236-.823c-.014-.045.005-.067.056-.067h.199l-.073-.256h-.505c-.193 0-.274.056-.242.167l.668 2.344h.47zm.753-.331h-.794l-.095-.316s.132.09.353.094c.22.003.472 0 .472 0l.064.222zm-.288-.734c.059-.007.092.015.096.067l.048.167h-.795l-.066-.234h.717zm-.536-.379h.458l-.008-.188h.122c.061 0 .092.018.092.056l.036.122h.381l-.05-.178c-.044-.149-.158-.226-.343-.234h-.244l-.001-.322c-.005-.052.044-.079.145-.079h.23l-.074-.255h-.55c-.155-.007-.23.063-.229.211l.035.867zM8.355 8.967a1.06 1.06 0 0 0-.43-.671c-.221-.156-.507-.234-.857-.234-.329 0-.57.08-.724.24a.605.605 0 0 0-.16.432c0 .072.01.15.027.233l.373 1.71h.562L6.78 8.986a.52.52 0 0 1-.015-.13.32.32 0 0 1 .068-.213c.066-.082.174-.123.325-.123.173 0 .316.04.426.122.111.08.184.195.216.344l.369 1.691h.56l-.373-1.71M10.718 9.64h.44l-.345-1.527h-.44l.345 1.526m.139.557h.444l-.083-.37h-.444l.083.37M11.549 8.23a.55.55 0 0 0-.174.425.944.944 0 0 0 .023.215c.052.248.164.445.335.59a.924.924 0 0 0 .62.22c.198 0 .355-.053.47-.159a.557.557 0 0 0 .172-.43.995.995 0 0 0-.025-.22.994.994 0 0 0-.333-.582.93.93 0 0 0-.618-.215c-.199 0-.355.051-.47.155m.84.302c.077.08.133.202.167.364a.859.859 0 0 1 .016.15.3.3 0 0 1-.076.219c-.05.052-.121.078-.214.078a.395.395 0 0 1-.3-.123.751.751 0 0 1-.168-.37.522.522 0 0 1-.016-.146c0-.093.025-.165.076-.216.05-.051.121-.077.215-.077.122 0 .222.04.3.121"/><path fill="#E02F41" d="M16.677 13.464l-1.77.01 1.76-.02c.003 0 .007.01.01.01"/><path fill="#2E4F7D" d="M14.908 13.445l-3.146.03c-.008 0-.016-.01-.024-.019l3.17-.01"/><path fill="#FFF" d="M15.855 7.038l.106.356h.537l-.023-.13s.275.13.472.13h.665l-.106-.356h-.105l-.5-1.679h.104l-.1-.333h-.104l-.044-.145h-.52l.044.145h-1.027l.1.333h.103l.502 1.68h-.104zm.58 0l-.137-.454s.234.085.435.11c.045.158.103.344.103.344h-.402zm-.2-.667l-.138-.476s.26.121.437.132c.052.184.103.344.103.344h-.403zm.1-1.012l.103.345h-.401l-.104-.345h.402zm1.3 2.057h.504l.022-.177c-.004-.045.025-.067.085-.067h.089l-.09-.3h-.372c-.142-.007-.214.044-.221.156l-.018.388zm-.149-.645h1.636l-.096-.322h-.52l-.09-.3h.52l-.096-.323h-.58l-.13-.188h.283l.065-.378c.008-.038.043-.056.103-.056h.088l-.092-.312h-.312c-.162-.007-.245.044-.252.156l-.075.345-.259-.367a.283.283 0 0 0-.28-.145h-.477l.093.311h.148c.061 0 .112.026.158.078l.404.556h-.521l.096.323h.565l.09.3h-.565l.096.322zM8.873 9.64h.397l-.045-.22.057.062a.633.633 0 0 0 .47.197c.167 0 .288-.047.364-.14.074-.093.095-.221.06-.386l-.22-1.04h-.408l.198.942c.02.098.014.17-.017.217-.031.047-.09.07-.176.07a.393.393 0 0 1-.266-.093.455.455 0 0 1-.143-.26l-.182-.877h-.41l.321 1.528M13.43 9.64h.399l-.046-.22.057.062a.634.634 0 0 0 .47.197c.167 0 .288-.047.363-.14.074-.093.096-.221.06-.386l-.219-1.04h-.409l.198.942c.02.098.015.17-.016.217-.032.047-.09.07-.176.07a.396.396 0 0 1-.266-.093.45.45 0 0 1-.143-.26l-.183-.877h-.409l.32 1.528M15.397 10.587h1.155c.222 0 .394-.048.512-.142a.497.497 0 0 0 .176-.41v-.006c0-.033-.002-.072-.006-.113a1.611 1.611 0 0 0-.022-.125.959.959 0 0 0-.352-.569 1.025 1.025 0 0 0-.65-.215h-.619l-.191-.895h-.536l.533 2.475m.289-1.15h.513c.134 0 .24.03.318.088.077.06.127.15.156.273l.01.061c.002.018.004.036.004.053 0 .088-.032.151-.098.191-.065.04-.168.06-.31.06h-.437l-.156-.726M19.64 7.817c-.17-.343-.331-.543-.426-.636-.095-.092-.283-.306-.736-.29l.039.262c.381.112.587.616.705.839l-.14 1.644.295.003h.247l.027-1.03.463 1.03h.47l-.944-1.822M18.327 9.515l-.187-.122c-.194.145-.372.235-.716.083-.468-.206-.859-1.79.43-1.268l.073-.083.507-.013.332 1.44-.439-.037m-.288-.787c-.082-.228-.263-.38-.406-.336-.142.042-.193.262-.11.491.08.23.264.38.405.337.142-.042.194-.263.11-.492"/></g></svg>