<svg width="24" height="8" viewBox="0 0 24 8" fill="none" xmlns="http://www.w3.org/2000/svg" class="css-wj2heb"><path fill-rule="evenodd" clip-rule="evenodd" d="M12.4122 2.55756C12.3985 3.67194 13.3744 4.29382 14.1094 4.66356C14.8647 5.04297 15.1184 5.28624 15.1155 5.62545C15.1097 6.14471 14.513 6.3738 13.9545 6.38272C12.9801 6.39833 12.4136 6.1112 11.9632 5.894L11.6123 7.58932C12.0641 7.80435 12.9008 7.99182 13.7686 8C15.8052 8 17.1377 6.96224 17.1449 5.35319C17.1529 3.31117 14.4085 3.19808 14.4272 2.2853C14.4337 2.00858 14.6896 1.71322 15.2503 1.63809C15.5277 1.60019 16.2938 1.57114 17.1622 1.98399L17.5031 0.343733C17.0361 0.168151 16.4357 0 15.6884 0C13.7714 0 12.4231 1.05189 12.4122 2.55756ZM20.7786 0.141334C20.4067 0.141334 20.0932 0.365286 19.9534 0.708958L17.044 7.87948H19.0792L19.4842 6.72416H21.9713L22.2062 7.87948H24L22.4347 0.141334H20.7786ZM21.0632 2.23173L21.6506 5.13742H20.042L21.0632 2.23173ZM9.94464 0.141334L8.34042 7.87948H10.2797L11.8832 0.141334H9.94464ZM7.07562 0.141334L5.05698 5.40819L4.24044 0.929876C4.14462 0.430007 3.76626 0.141334 3.34608 0.141334H0.0461398L0 0.36603C0.67746 0.517768 1.44714 0.762531 1.9134 1.02439C2.19876 1.1843 2.28024 1.32415 2.3739 1.7043L3.92046 7.87948H5.97012L9.11226 0.141334H7.07562Z" fill="#1A1F71"/></svg>